<svg xmlns="http://www.w3.org/2000/svg" viewBox="0 0 32 32">
  <!-- clock face -->
  <circle cx="16" cy="16" r="14" fill="#fffde7" stroke="#404040" stroke-width="1"/>

  <!-- hour tick marks (pixel-square style) -->
  <rect x="15" y="3"  width="2" height="3" fill="#000"/>
  <rect x="26" y="15" width="3" height="2" fill="#000"/>
  <rect x="15" y="26" width="2" height="3" fill="#000"/>
  <rect x="3"  y="15" width="3" height="2" fill="#000"/>

  <!-- minor ticks -->
  <rect x="21" y="5"  width="1" height="2" fill="#808080"/>
  <rect x="25" y="9"  width="2" height="1" fill="#808080"/>
  <rect x="25" y="22" width="2" height="1" fill="#808080"/>
  <rect x="21" y="25" width="1" height="2" fill="#808080"/>
  <rect x="10" y="25" width="1" height="2" fill="#808080"/>
  <rect x="5"  y="22" width="2" height="1" fill="#808080"/>
  <rect x="5"  y="9"  width="2" height="1" fill="#808080"/>
  <rect x="10" y="5"  width="1" height="2" fill="#808080"/>

  <!-- hour hand  (~10 o'clock) -->
  <line x1="16" y1="16" x2="10" y2="9" stroke="#000" stroke-width="2" stroke-linecap="square"/>
  <!-- minute hand (~2 o'clock) -->
  <line x1="16" y1="16" x2="22" y2="7" stroke="#000" stroke-width="1.5" stroke-linecap="square"/>

  <!-- center pivot -->
  <rect x="15" y="15" width="2" height="2" fill="#000"/>
</svg>
