<svg xmlns="http://www.w3.org/2000/svg" viewBox="0 0 32 32">
  <!-- outer raised border (Win95 3-D effect) -->
  <rect width="32" height="32" fill="#c0c0c0"/>
  <line x1="0" y1="0" x2="32" y2="0" stroke="#ffffff" stroke-width="1.5"/>
  <line x1="0" y1="0" x2="0"  y2="32" stroke="#ffffff" stroke-width="1.5"/>
  <line x1="32" y1="0" x2="32" y2="32" stroke="#404040" stroke-width="1.5"/>
  <line x1="0" y1="32" x2="32" y2="32" stroke="#404040" stroke-width="1.5"/>

  <!-- clock face -->
  <circle cx="16" cy="16" r="12" fill="#fffde7" stroke="#404040" stroke-width="1"/>

  <!-- hour tick marks (pixel-square style) -->
  <rect x="15" y="5"  width="2" height="3" fill="#000"/>
  <rect x="24" y="15" width="3" height="2" fill="#000"/>
  <rect x="15" y="24" width="2" height="3" fill="#000"/>
  <rect x="5"  y="15" width="3" height="2" fill="#000"/>

  <!-- minor ticks -->
  <rect x="19" y="6"  width="1" height="2" fill="#808080"/>
  <rect x="23" y="9"  width="2" height="1" fill="#808080"/>
  <rect x="23" y="21" width="2" height="1" fill="#808080"/>
  <rect x="19" y="24" width="1" height="2" fill="#808080"/>
  <rect x="11" y="24" width="1" height="2" fill="#808080"/>
  <rect x="7"  y="21" width="2" height="1" fill="#808080"/>
  <rect x="7"  y="9"  width="2" height="1" fill="#808080"/>
  <rect x="11" y="6"  width="1" height="2" fill="#808080"/>

  <!-- hour hand  (~10 o'clock) -->
  <line x1="16" y1="16" x2="11" y2="10" stroke="#000" stroke-width="2" stroke-linecap="square"/>
  <!-- minute hand (~2 o'clock) -->
  <line x1="16" y1="16" x2="21" y2="8"  stroke="#000" stroke-width="1.5" stroke-linecap="square"/>

  <!-- center pivot -->
  <rect x="15" y="15" width="2" height="2" fill="#000"/>
</svg>
